<?xml version="1.0" standalone="no"?><!DOCTYPE svg PUBLIC "-//W3C//DTD SVG 1.1//EN" "http://www.w3.org/Graphics/SVG/1.1/DTD/svg11.dtd"><svg t="1489826927346" class="icon" style="" viewBox="0 0 1024 1024" version="1.1" xmlns="http://www.w3.org/2000/svg" p-id="3189" xmlns:xlink="http://www.w3.org/1999/xlink" width="16" height="16"><defs><style type="text/css"></style></defs><path d="M784.802315 224.44574l-221.287633 328.115757 0 75.216007 153.703012 0 0 32.701508-153.703012 0 0 128.630069c0 42.511678 8.720778 49.053673 131.901067 58.863843l0 30.519902L354.218824 878.492826 354.218824 847.975746c117.730507-7.631387 135.172064-16.352165 135.172064-58.863843l0-128.630069-174.412744 0 0-32.701508 174.412744 0 0-19.623162c0-29.433332-8.720778-65.405837-21.801946-82.844572L265.921649 244.068903C231.038536 196.104622 200.518634 174.302676 134.020583 174.302676L134.020583 143.779952l285.601257 0L419.621839 174.302676c-105.738732 0-115.546079 10.899562-86.118392 52.32467l210.388072 293.232643 209.295858-310.6742c16.349343-23.983552 14.170559-33.793722-82.844572-33.793722L670.342805 143.779952l225.6452 0 0 31.612116C818.596037 175.392068 809.875258 186.294452 784.802315 224.44574z" p-id="3190" fill="#1296db"></path><path d="M841.645421 28.541499l-160.592145 0L340.959854 28.541499 180.353598 28.541499 19.755809 28.541499l0 963.598027 982.493046 0L1002.248855 28.541499 841.645421 28.541499zM948.716258 916.570736 79.584863 916.570736 79.584863 101.564612l869.131395 0L948.716258 916.570736z" p-id="3191" fill="#1296db"></path></svg>