<?xml version="1.0" standalone="no"?><!DOCTYPE svg PUBLIC "-//W3C//DTD SVG 1.1//EN" "http://www.w3.org/Graphics/SVG/1.1/DTD/svg11.dtd"><svg t="1489022313911" class="icon" style="" viewBox="0 0 1024 1024" version="1.1" xmlns="http://www.w3.org/2000/svg" p-id="1185" xmlns:xlink="http://www.w3.org/1999/xlink" width="16" height="16"><defs><style type="text/css"></style></defs><path d="M368.391 212.515c15.991 0 28.951-11.663 28.951-26.051v-98.068c0-14.391-12.96-26.055-28.951-26.055-15.988 0-28.947 11.664-28.947 26.055v98.068c0.003 14.393 12.959 26.051 28.947 26.051z" p-id="1186" fill="#1296db"></path><path d="M662.182 212.515c15.991 0 28.951-11.663 28.951-26.051v-98.068c0-14.391-12.957-26.055-28.951-26.055-15.988 0-28.951 11.664-28.951 26.055v98.068c0 14.393 12.963 26.051 28.951 26.051z" p-id="1187" fill="#1296db"></path><path d="M845.168 150.93h-115.684v25.402c0 33.454-30.129 60.576-67.305 60.576-37.171 0-67.303-27.122-67.303-60.576v-25.402h-159.181v25.406c0 33.462-30.135 60.576-67.305 60.576-37.174 0-67.303-27.121-67.303-60.576v-25.406h-123.491c-64.134 0-116.133 46.797-116.133 104.514v600.976c0 57.718 51.998 104.546 116.133 104.546h667.573c64.132 0 116.118-46.826 116.118-104.546v-600.976c0-57.722-51.988-104.516-116.121-104.516zM302.603 806.201h-100v-91.572h100v91.572zM302.603 689.364h-100v-91.58h100v91.58zM434.187 806.201h-100v-91.572h100v91.572zM434.187 689.364h-100v-91.58h100v91.58zM434.187 569.356h-100v-91.575h100v91.575zM567.513 806.201h-100v-91.572h100v91.572zM567.513 689.364h-100v-91.58h100v91.58zM567.513 569.356h-100v-91.575h100v91.575zM697.338 806.201h-99.997v-91.572h99.997v91.572zM697.338 689.364h-99.997v-91.58h99.997v91.58zM697.338 569.356h-99.997v-91.575h99.997v91.575zM832.421 689.364h-99.993v-91.58h99.993v91.58zM832.421 569.356h-99.993v-91.575h99.993v91.575z" p-id="1188" fill="#1296db"></path></svg>