<?xml version="1.0" standalone="no"?><!DOCTYPE svg PUBLIC "-//W3C//DTD SVG 1.1//EN" "http://www.w3.org/Graphics/SVG/1.1/DTD/svg11.dtd"><svg t="1489826883732" class="icon" style="" viewBox="0 0 1024 1024" version="1.1" xmlns="http://www.w3.org/2000/svg" p-id="1805" xmlns:xlink="http://www.w3.org/1999/xlink" width="16" height="16"><defs><style type="text/css"></style></defs><path d="M932.2117 435.7243l-0.0666 0.0655L561.8074 70.2198c-13.0611-12.8809-34.2405-12.8809-47.2812 0-13.0796 12.8799-13.0796 33.7797 0 46.6606l372.9848 368.1843c0.3062 0.3021 0.6205 0.5908 0.937 0.8796 92.2184 94.7302 91.0531 245.2982-3.5185 338.604-95.7604 94.5019-251.0019 94.5019-346.7643 0l-0.0061-0.0061-0.0614 0.0604L112.5673 404.6285l0.0092-0.0092c-60.9362-60.1201-60.9352-157.6182 0.0041-217.7372 60.9208-60.1405 159.7225-60.1405 220.6628 0l0.0041 0.0041 0.002-0.002 440.1285 434.3716c0.3645 0.3594 0.7383 0.7055 1.1151 1.0455l0.0727-0.0717c26.1519 25.812 26.1519 67.6239 0 93.4349-26.1284 25.7669-68.4595 25.7915-94.5981 0.0748l-0.0297 0.0287c-0.4014-0.4383-0.8131-0.8704-1.2421-1.2923l-317.9725-313.8519c-13.0591-12.9004-34.2405-12.9004-47.3006 0-13.0601 12.8799-13.0601 33.7603 0 46.6606l317.9919 313.8519c0.4618 0.4557 0.937 0.8909 1.4193 1.3148 52.2476 51.4365 136.8504 51.4048 189.057-0.1024 52.2199-51.541 52.2199-135.1014 0-186.6435l-0.0727 0.0717c-0.3676-0.4014-0.7465-0.7956-1.1387-1.1827L380.5368 140.2286l0.0072-0.0072c-0.1966-0.1946-0.3994-0.3809-0.597-0.5745l-7.3021-7.2069c-1.6794-1.6558-3.4939-3.0945-5.4067-4.3254-87.5889-73.5764-219.2026-69.547-301.9571 12.1068C-17.4418 221.8598-21.5368 351.6908 52.9766 438.1123c1.2564 1.9087 2.7269 3.7192 4.4237 5.3934l7.8049 7.7025c0.0256 0.0256 0.0502 0.0512 0.0758 0.0768l0.001-0.001 425.6041 420.0468c0.6093 0.6021 1.2411 1.1663 1.8842 1.7111 122.026 118.4082 318.208 117.8112 439.4424-1.8309C1054.0933 750.9678 1054.0933 555.9859 932.2117 435.7243z" p-id="1806" fill="#1296db"></path></svg>