<?xml version="1.0" standalone="no"?><!DOCTYPE svg PUBLIC "-//W3C//DTD SVG 1.1//EN" "http://www.w3.org/Graphics/SVG/1.1/DTD/svg11.dtd"><svg t="1489826976210" class="icon" style="" viewBox="0 0 1024 1024" version="1.1" xmlns="http://www.w3.org/2000/svg" p-id="4419" xmlns:xlink="http://www.w3.org/1999/xlink" width="16" height="16"><defs><style type="text/css"></style></defs><path d="M508.029906 18.062301c42.696871 0 77.336751 34.627839 77.336751 77.33916 0 42.707708-34.639881 77.336751-77.336751 77.336751-42.710117 0-77.337956-34.627839-77.337956-77.336751C430.691951 52.69014 465.31979 18.062301 508.029906 18.062301z" p-id="4420" fill="#1296db"></path><path d="M392.024177 250.073759l232.012662 0c21.348435 0 38.666569 17.308501 38.666569 38.668978l0 25.778516c0 21.361681-17.318134 38.668978-38.666569 38.668978L392.024177 353.19023c-21.361681 0-38.670182-17.307297-38.670182-38.668978l0-25.778516C353.353995 267.381056 370.662496 250.073759 392.024177 250.073759z" p-id="4421" fill="#1296db"></path><path d="M340.465942 430.52939l335.129134 0c21.348435 0 38.666569 17.307297 38.666569 38.668978l0 25.778516c0 21.360477-17.318134 38.667774-38.666569 38.667774L340.465942 533.644657c-21.361681 0-38.670182-17.307297-38.670182-38.667774L301.79576 469.198368C301.79576 447.836687 319.10426 430.52939 340.465942 430.52939z" p-id="4422" fill="#1296db"></path><path d="M381.649192 879.019932c-104.435019-118.572984-234.528139-268.039728-234.528139-268.039728s232.20051 0 433.208631 0c153.393488 0 288.609076 0 288.609076 0s-128.746876 147.123461-232.441341 265.645871C465.206599 1072.385291 543.729442 1062.997712 381.649192 879.019932z" p-id="4423" fill="#1296db"></path></svg>