<?xml version="1.0" standalone="no"?><!DOCTYPE svg PUBLIC "-//W3C//DTD SVG 1.1//EN" "http://www.w3.org/Graphics/SVG/1.1/DTD/svg11.dtd"><svg t="1488781721974" class="icon" style="" viewBox="0 0 1024 1024" version="1.1" xmlns="http://www.w3.org/2000/svg" p-id="4813" xmlns:xlink="http://www.w3.org/1999/xlink" width="16" height="16"><defs><style type="text/css"></style></defs><path d="M512 256C371.2 256 256 371.2 256 512s115.2 256 256 256 256-115.2 256-256S652.8 256 512 256zM512 0C230.4 0 0 230.4 0 512s230.4 512 512 512 512-230.4 512-512S793.6 0 512 0zM512 921.6c-224 0-409.6-185.6-409.6-409.6S288 102.4 512 102.4s409.6 185.6 409.6 409.6S736 921.6 512 921.6z" p-id="4814" fill="#1296db"></path></svg>