<?xml version="1.0" standalone="no"?><!DOCTYPE svg PUBLIC "-//W3C//DTD SVG 1.1//EN" "http://www.w3.org/Graphics/SVG/1.1/DTD/svg11.dtd"><svg t="1488597358511" class="icon" style="" viewBox="0 0 1280 1024" version="1.1" xmlns="http://www.w3.org/2000/svg" p-id="4028" xmlns:xlink="http://www.w3.org/1999/xlink" width="20" height="16"><defs><style type="text/css"></style></defs><path d="M601.599273 31.999961c21.333308-42.666615 55.4666-42.666615 76.799907 0l101.119878 206.506417c20.906641 43.093281 76.799907 83.626566 123.733184 90.87989l226.559726 32.853294c46.933277 6.826658 57.59993 40.106618 23.466638 73.386578l-163.839802 160.853139c-34.133292 33.27996-55.039933 98.986547-47.359943 146.34649l38.82662 226.986392c8.106657 46.933277-19.626643 67.413252-61.866592 45.226612l-202.666422-107.093204c-41.813283-22.613306-110.933199-22.613306-152.746482 0l-202.666422 107.093204c-42.239949 22.18664-69.973249 1.706665-61.866592-45.226612l38.82662-226.986392c7.679991-47.359943-13.226651-113.06653-47.359943-146.34649l-163.839802-160.853139c-34.133292-33.27996-23.466638-66.55992 23.466638-73.386578l226.559726-32.853294c46.933277-7.253325 102.826542-47.786609 123.733184-90.87989L601.599273 31.999961z" p-id="4029" fill="#e6e6e6"></path></svg>