<?xml version="1.0" standalone="no"?><!DOCTYPE svg PUBLIC "-//W3C//DTD SVG 1.1//EN" "http://www.w3.org/Graphics/SVG/1.1/DTD/svg11.dtd"><svg t="1488781812232" class="icon" style="" viewBox="0 0 1024 1024" version="1.1" xmlns="http://www.w3.org/2000/svg" p-id="6974" xmlns:xlink="http://www.w3.org/1999/xlink" width="16" height="16"><defs><style type="text/css"></style></defs><path d="M848.4864 564.72576l-153.6 163.84h153.6zM180.21376 563.84512h48.0256V299.53024h-48.0256z" p-id="6975" fill="#1296db"></path><path d="M902.5024 199.68H424.41728v46.98624h474.6752v525.01504h-474.6752v49.81248h493.5168c16.57344-6.17984 28.50304-21.98528 29.184-40.73984V243.24608c-0.88064-24.20736-20.48512-43.56608-44.60544-43.56608zM124.91264 771.68128V246.66624h299.49952V199.68H121.4976C96.8192 199.68 76.8 219.93984 76.8 244.93568v1.73056h0.08192v403.0208L76.8 710.23616v68.83328a45.19424 45.19424 0 0 0 29.26592 42.42432h318.34112v-49.8176H124.90752z" p-id="6976" fill="#1296db"></path></svg>